<svg width="128" height="23" viewBox="0 0 128 23" fill="none" xmlns="http://www.w3.org/2000/svg">
<g id="wwdc-logo">
<path id="Combined Shape" fill-rule="evenodd" clip-rule="evenodd" d="M13.1 3.7C12.3 4.6 11 5.3 10 5.3C9.90001 5.3 9.80001 5.3 9.70001 5.2V4.8C9.70001 3.6 10.4 2.4 11 1.7C11.8 0.8 13.2 0 14.3 0V0.5C14.3 1.7 13.8 2.9 13.1 3.7ZM18.5 7.8C18.3 7.9 16 9.2 16 12.1C16 15.5 18.9 16.7 19 16.7C19 16.8 18.5 18.4 17.4 20C16.5 21.4 15.5 22.8 13.9 22.8C13.1842 22.8 12.7188 22.595 12.2323 22.3807C11.6994 22.146 11.141 21.9 10.2 21.9C9.24354 21.9 8.62589 22.1824 8.047 22.447C7.53647 22.6804 7.05608 22.9 6.40001 22.9C5.00001 22.9 4.00001 21.6 3.00001 20C1.70001 18.1 0.600006 15.2 0.600006 12.4C0.600006 8 3.50001 5.6 6.30001 5.6C7.12577 5.6 7.86062 5.90306 8.52123 6.17551C9.06062 6.39796 9.55052 6.6 10 6.6C10.3791 6.6 10.8468 6.40488 11.3883 6.179C12.1325 5.86856 13.016 5.5 14 5.5C14.6 5.5 17 5.6 18.5 7.8ZM38.1 17.6H37.9L34.8 5.8H31.9L28.8 17.6H28.7L26 5.8H22.4L26.8 22.5H30.1L33.3 11.5H33.5L36.6 22.5H39.9L44.3 5.8H40.7L38.1 17.6ZM61 17.6H61.1L63.7 5.8H67.3L62.9 22.5H59.6L56.5 11.5H56.3L53.1 22.5H49.8L45.4 5.8H49.1L51.7 17.6H51.8L54.9 5.8H57.8L61 17.6ZM68.7 5.8H75.3C80.3 5.8 83.1 8.8 83.1 14C83.1 19.5 80.3 22.5 75.3 22.5H68.7V5.8ZM72.2 19.5H74.7C77.8 19.5 79.6 17.6 79.5 14.1C79.5 10.7 77.7 8.8 74.7 8.8H72.2V19.5ZM88.1 14.2C88.1 17.7 89.8 19.9 92.4 19.9C94.4 19.9 95.9 18.7 96.2 16.9H99.6C99.3 20.5 96.3 23 92.3 23C87.5 23 84.5 19.6 84.5 14.2C84.5 8.7 87.4 5.4 92.3 5.4C96.3 5.4 99.3 8.1 99.6 11.7H96.2C95.9 9.8 94.4 8.5 92.4 8.5C89.7 8.5 88.1 10.7 88.1 14.2ZM106.3 19.5L109.8 16.2C112.6 13.6 113.4 12.2 113.4 10.3C113.4 7.5 111.1 5.4 107.6 5.4C103.9 5.4 101.4 7.6 101.4 10.9H104.6C104.6 9.3 105.7 8.1 107.4 8.1C109 8.1 110 9.2 110 10.6C110 11.8 109.5 12.5 107.5 14.5L101.6 20.2V22.5H113.6V19.7H106.3V19.5ZM120.9 5.4C116.8 5.4 114.3 8.6 114.3 14.1C114.3 19.6 116.8 22.9 120.9 22.9C125 22.9 127.5 19.6 127.5 14.1C127.5 8.6 125 5.4 120.9 5.4ZM120.9 20.2C119 20.2 117.8 18.2 117.8 14.2C117.8 10.2 119 8.2 120.9 8.2C122.8 8.2 124 10.2 124 14.2C124 18.2 122.8 20.2 120.9 20.2Z" fill="white"/>
</g>
</svg>
